<?xml version="1.0"?>
<svg width="4000" height="2666.6666999999998" xmlns="http://www.w3.org/2000/svg" xmlns:svg="http://www.w3.org/2000/svg" version="1.1">
 <defs id="defs6">
  <clipPath clipPathUnits="userSpaceOnUse" id="clipPath54">
   <path d="m11079.2,11304.2l163.4,-223.5c0,0 -1608.99,-1727.8 -1929.28,-1657.3c-314.23,69 -564.18,586.9 -564.18,586.9l2330.06,1293.9z" id="path52"/>
  </clipPath>
  <clipPath clipPathUnits="userSpaceOnUse" id="clipPath68">
   <path d="m8412.83,8869l267.44,-5974.5l-1285.03,0l-31.81,5284.1l-239.55,-5284.1l-1390.38,0l692.19,5974.5l1987.14,0z" id="path66"/>
  </clipPath>
  <clipPath clipPathUnits="userSpaceOnUse" id="clipPath106">
   <path d="m7665.16,12966.1c-210.73,0 -381.56,-265.7 -381.56,-593.5l0,-288.4c0,-114.6 -10.36,-228.9 -30.96,-341.6l-74.34,-406.7l486.86,1.6l0,441.6c210.72,0 381.55,265.7 381.55,593.5c0,327.8 -170.83,593.5 -381.55,593.5z" id="path104"/>
  </clipPath>
  <clipPath clipPathUnits="userSpaceOnUse" id="clipPath120">
   <path d="m5519.01,10560.5c284.84,274.5 745.82,718.9 745.82,718.9c218.61,203.4 506.12,316.4 804.7,316.4l782.24,0c298.98,0 586.84,-113.3 805.54,-317.2l859.99,-801.6l-723.68,-792.5l-337.21,340.6l102.62,-1156.1l-2286.72,0l134.03,1098.6l-280.33,-283.1l-826.5,664.4c0,0 92.14,88.8 219.5,211.6z" id="path118"/>
  </clipPath>
  <clipPath clipPathUnits="userSpaceOnUse" id="clipPath136">
   <path d="m3972.88,11260.1l-134.43,-280.9c0,0 1388.47,-1798.6 1714,-1758.8c319.36,38.9 617.28,530.8 617.28,530.8l-2196.85,1508.9z" id="path134"/>
  </clipPath>
  <clipPath clipPathUnits="userSpaceOnUse" id="clipPath162">
   <path d="m3229.55,7848l1011.31,0l-227.4,-762.9l-586.44,0l-197.47,762.9z" id="path160"/>
  </clipPath>
  <clipPath clipPathUnits="userSpaceOnUse" id="clipPath176">
   <path d="m22244.9,4027.6l765,-1426.3l-422.9,6l-1445.2,1420.3l1103.1,0z" id="path174"/>
  </clipPath>
  <clipPath clipPathUnits="userSpaceOnUse" id="clipPath192">
   <path d="m22297.6,8178.1c0,0 259.9,-532.2 187,-1088.8c-14.3,-109.3 -38.7,-207.7 -68.8,-295.1c-179.7,-522.3 -193.1,-1087.6 -51.8,-1621.6l347.5,-1313.1l-2265.5,47.2l0,4271.4l1851.6,0z" id="path190"/>
  </clipPath>
  <clipPath clipPathUnits="userSpaceOnUse" id="clipPath208">
   <path d="m21485.4,11721.8c48,-9 97.5,40.2 110.6,109.9c13.1,69.7 -15.1,133.6 -63.1,142.6c-28.8,5.4 -58.1,-10.3 -79.8,-38.7c-48.6,200.8 -173.2,343.8 -319.2,343.8c-188.4,0 -341.1,-237.5 -341.1,-530.5c0,-292.9 152.7,-530.4 341.1,-530.4l0,-394.6l435.1,-1.5l-66.5,363.5c-18.4,100.7 -27.7,202.9 -27.7,305.3l0,233.7c3.5,-1.3 7,-2.4 10.6,-3.1z" id="path206"/>
  </clipPath>
  <clipPath clipPathUnits="userSpaceOnUse" id="clipPath220">
   <path d="m20284.7,7895.1l257,2609.6c31.3,282.6 270.1,496.5 554.4,496.5l619.2,0c273.2,0 506.2,-197.9 550.4,-467.4l386.5,-2355.7l-2367.5,-283z" id="path218"/>
  </clipPath>
  <clipPath clipPathUnits="userSpaceOnUse" id="clipPath262">
   <path d="m22731,9553.1l-372.9,996.6c-100.5,268.6 -355.6,447.9 -642.3,451.5l-0.5,0c0,0 220.9,-1345.7 293.2,-1606.1l-1740,-339.6c-57.5,25.3 -302.5,80.2 -377.6,86c-112.7,8.7 -212.8,-129.3 -262.7,-212.9c-17.4,-29.1 0.8,-66.6 34.5,-71.2c126.6,-17.3 400.4,-52 569,-52.5c0,0 2286.1,-173.7 2522.9,44.1c193.6,178.1 -23.6,704.1 -23.6,704.1z" id="path260"/>
  </clipPath>
  <clipPath clipPathUnits="userSpaceOnUse" id="clipPath278">
   <path d="m25043.4,12724.1c207.2,-41.9 322.2,-337 257,-659.2l-57.3,-283.5c-22.8,-112.6 -35.3,-227 -37.5,-341.9l-7.8,-414.5l-478.2,98.3l87.8,434.1c-207.1,41.9 -322.2,337 -257,659.2c65.2,322.2 285.9,549.4 493,507.5z" id="path276"/>
  </clipPath>
  <clipPath clipPathUnits="userSpaceOnUse" id="clipPath298">
   <path d="m24647.2,11043.7c133,-89.3 300.7,-108.8 453.1,-59.5c127.7,41.3 282.7,124.6 353,291.4c-60.4,22.6 -125.5,34.8 -193.1,34.8l-613,0c-61.9,0 -121.6,-10.3 -177.4,-29.2c12.9,-49.9 53.5,-154.2 177.4,-237.5z" id="path296"/>
  </clipPath>
  <clipPath clipPathUnits="userSpaceOnUse" id="clipPath326">
   <path d="m25078.1,2283.3l25,727.8l-634.3,0l61.5,-641.5c0,0 243.2,-183.8 547.8,-86.3z" id="path324"/>
  </clipPath>
  <clipPath clipPathUnits="userSpaceOnUse" id="clipPath348">
   <path d="m27388.1,2773.9l-235.2,689.2l-593,-225.5l285.6,-577.7c0,0 292.6,-85.3 542.6,114z" id="path346"/>
  </clipPath>
  <clipPath clipPathUnits="userSpaceOnUse" id="clipPath366">
   <path d="m26514.3,3786.1l-1506.3,-416.1l-1797.1,6505.7l1506.3,416l1797.1,-6505.6z" id="path364"/>
  </clipPath>
  <clipPath clipPathUnits="userSpaceOnUse" id="clipPath414">
   <path d="m26527.4,9912.5l-235,555.9l-480.2,-262.9l134.4,-350.2l-1222.6,-1079.1c-64.1,-3.3 -516.5,-27.9 -495.7,-69.4c22.3,-44.7 261.4,22.3 251.3,-67c-10.1,-89.3 -434.4,-227.7 -421,-259c13.4,-31.3 357.3,-183.1 437.6,-165.2c80.4,17.8 478.7,409.2 478.7,409.2l-0.5,0.3c175,100.4 649.2,374.5 1052,625.7c29.7,18.5 351.9,224.1 351.9,224.1c145.6,93.3 207.4,274.8 149.1,437.6z" id="path412"/>
  </clipPath>
  <clipPath clipPathUnits="userSpaceOnUse" id="clipPath466">
   <path d="m12511.4,12445.9c0,348.6 -171.6,631.2 -383.3,631.2c-211.8,0 -383.4,-282.6 -383.4,-631.2c0,-218.6 67.5,-411.2 170.1,-524.5l-49.9,-483.1l526.3,0l-47.2,486.1c101,113.7 167.4,304.8 167.4,521.5z" id="path464"/>
  </clipPath>
  <clipPath clipPathUnits="userSpaceOnUse" id="clipPath480">
   <path d="m10894.1,3125.7l12.8,-699.4l757.5,0l0,699.4l-770.3,0z" id="path478"/>
  </clipPath>
  <clipPath clipPathUnits="userSpaceOnUse" id="clipPath512">
   <path d="m12575.8,11591.2l148.5,-2896.8l735.9,140.1l-372.1,2315.4c-40.5,252.3 -256.9,438.6 -512.3,441.3z" id="path510"/>
  </clipPath>
  <clipPath clipPathUnits="userSpaceOnUse" id="clipPath530">
   <path d="m13716.9,11828.9l1335.8,769.5c40.7,23.5 88.7,-16.3 73.2,-60.7l-507.1,-1455.8l-208.4,-251.7l-902,746.9l208.5,251.8z" id="path528"/>
  </clipPath>
  <clipPath clipPathUnits="userSpaceOnUse" id="clipPath552">
   <path d="m13426.2,9036.2l-562,2200.4l614.7,215.6l699.1,-1872.4c62.5,-172.4 18.1,-365.5 -113.5,-493.2l0,0c-4.1,-4 -8.2,-7.9 -12.4,-11.6c-105.3,-95 -252.2,-128.6 -390,-95.5l-235.9,56.7z" id="path550"/>
  </clipPath>
 </defs>
 <g class="layer">
  <title>Layer 1</title>
  <path d="m291.51,2414.23l3497.42,0c36.99,-200.99 62.25,-404.23 64.65,-608.57c1.44,-122.73 -7.79,-273.45 -76.15,-382.73c-118.41,-189.27 -343.23,-190.65 -504.52,-319.65c-112.99,-90.37 -164.29,-231.43 -254.53,-340.8c-86.05,-104.31 -217.35,-188.08 -338.08,-246.47c-257.81,-124.67 -569.01,-156.67 -839.2,-52.2c-95.07,36.76 -183.36,90.27 -259.43,158.17c-22.44,20.03 -43.37,41.69 -62.16,65.17c-75.45,94.31 -113.33,212.23 -165.65,321.09c-52.32,108.85 -128.35,216.84 -242.63,255.93c-93.37,31.93 -195.28,12.35 -293.94,10.24c-230.83,-4.92 -488,98.17 -626.5,288.11c-169.69,232.69 -113.64,553.4 35.32,767.08c21.25,30.47 35.94,48.85 65.39,84.63" fill="#f7f7f7" fill-rule="nonzero" id="path14"/>
  <path d="m497,2415.79l-223.5,0l0,-693.8l223.5,0l0,693.8" fill="#d1d1d1" fill-rule="nonzero" id="path16"/>
  <path d="m734.02,2415.79l-237.03,0l0,-693.8l237.03,0l0,693.8" fill="#e8e8e8" fill-rule="nonzero" id="path18"/>
  <path d="m734.02,1851.68l-237.03,0l0,-11.16l237.03,0l0,11.16" fill="#d1d1d1" fill-rule="nonzero" id="path20"/>
  <path d="m734.02,1968.55l-237.03,0l0,-11.16l237.03,0l0,11.16" fill="#d1d1d1" fill-rule="nonzero" id="path22"/>
  <path d="m734.02,2085.41l-237.03,0l0,-11.16l237.03,0l0,11.16" fill="#d1d1d1" fill-rule="nonzero" id="path24"/>
  <path d="m734.02,2202.28l-237.03,0l0,-11.16l237.03,0l0,11.16" fill="#d1d1d1" fill-rule="nonzero" id="path26"/>
  <path d="m734.02,2319.15l-237.03,0l0,-11.16l237.03,0l0,11.16" fill="#d1d1d1" fill-rule="nonzero" id="path28"/>
  <path d="m641.9,1785.53c0,9.76 -7.91,17.67 -17.68,17.67c-9.76,0 -17.68,-7.91 -17.68,-17.67c0,-9.77 7.91,-17.68 17.68,-17.68c9.76,0 17.68,7.91 17.68,17.68" fill="#d1d1d1" fill-rule="nonzero" id="path30"/>
  <path d="m641.9,1905.19c0,9.76 -7.91,17.67 -17.68,17.67c-9.76,0 -17.68,-7.91 -17.68,-17.67c0,-9.77 7.91,-17.68 17.68,-17.68c9.76,0 17.68,7.91 17.68,17.68" fill="#d1d1d1" fill-rule="nonzero" id="path32"/>
  <path d="m641.9,2019.67c0,9.76 -7.91,17.67 -17.68,17.67c-9.76,0 -17.68,-7.91 -17.68,-17.67c0,-9.76 7.91,-17.68 17.68,-17.68c9.76,0 17.68,7.92 17.68,17.68" fill="#d1d1d1" fill-rule="nonzero" id="path34"/>
  <path d="m641.9,2140.07c0,9.76 -7.91,17.68 -17.68,17.68c-9.76,0 -17.68,-7.92 -17.68,-17.68c0,-9.76 7.91,-17.68 17.68,-17.68c9.76,0 17.68,7.92 17.68,17.68" fill="#d1d1d1" fill-rule="nonzero" id="path36"/>
  <path d="m641.9,2255.29c0,9.77 -7.91,17.68 -17.68,17.68c-9.76,0 -17.68,-7.91 -17.68,-17.68c0,-9.76 7.91,-17.67 17.68,-17.67c9.76,0 17.68,7.91 17.68,17.67" fill="#d1d1d1" fill-rule="nonzero" id="path38"/>
  <path d="m641.9,2366.12c0,9.76 -7.91,17.67 -17.68,17.67c-9.76,0 -17.68,-7.91 -17.68,-17.67c0,-9.77 7.91,-17.68 17.68,-17.68c9.76,0 17.68,7.91 17.68,17.68" fill="#d1d1d1" fill-rule="nonzero" id="path40"/>
  <path d="m1477.23,1159.44c0,0 34.04,-30.73 40.76,-29.09c6.72,1.64 35.44,43.45 27.32,52.2c-8.12,8.73 -29.33,3.75 -39.95,0c-10.61,-3.75 -24.44,-15.61 -28.13,-23.11" fill="#ffd1c1" fill-rule="nonzero" id="path42"/>
  <path d="m1479.53,1162.67c0,0 17.71,28.95 55.68,24.73c0,0 -53.47,8.01 -64.85,-17.09l9.17,-7.64" fill="#ffa648" fill-rule="nonzero" id="path44"/>
  <path d="m1477.23,1159.44l21.79,29.8c0,0 -214.53,230.37 -257.24,220.97c-41.9,-9.2 -75.22,-78.25 -75.22,-78.25l310.67,-172.52" fill="#ffd1c1" fill-rule="nonzero" id="path46"/>
  <g id="g48" transform="matrix(0.133333 0 0 -0.133333 0 2666.67)">
   <g clip-path="url(#clipPath54)" id="g50">
    <path d="m9556.03,10458.4l-538.33,-898.7c0,0 -375.92,506.6 -361.98,520c13.94,13.4 900.31,378.7 900.31,378.7" fill="#ffb2a0" fill-rule="nonzero" id="path56"/>
    <path d="m9619.04,9531.4c0,0 -133.4,270 -28.58,527.2c104.81,257.3 1437.24,1164.1 1437.24,1164.1c0,0 -1199.03,-1673.8 -1408.66,-1691.3" fill="#ffb2a0" fill-rule="nonzero" id="path58"/>
   </g>
  </g>
  <path d="m1121.71,1484.13l35.66,796.6l-171.34,0l-4.24,-704.55l-31.94,704.55l-185.38,0l92.29,-796.6l264.95,0" fill="#373660" fill-rule="nonzero" id="path60"/>
  <g id="g62" transform="matrix(0.133333 0 0 -0.133333 0 2666.67)">
   <g clip-path="url(#clipPath68)" id="g64">
    <path d="m6358.79,2884c-2,0 -4.01,0.6 -5.8,1.7c-4.78,3.2 -6.16,9.5 -3.19,14.4c42.25,89 411.92,4024.6 601.56,6094c0.54,5.8 5.61,10.2 11.48,9.6c5.81,-0.5 10.09,-5.7 9.55,-11.5c-56.49,-616.5 -553.46,-6025.6 -604.77,-6103.5c-2.04,-3 -5.4,-4.7 -8.83,-4.7" fill="#4f5285" fill-rule="nonzero" id="path70"/>
    <path d="m8154.48,2884c-5.57,0 -10.23,4.4 -10.53,10l-325.04,6153.2c-0.31,5.8 4.16,10.8 9.99,11.1c5.78,0.3 10.79,-4.1 11.1,-10l325.03,-6153.2c0.31,-5.8 -4.16,-10.8 -9.98,-11.1c-0.19,0 -0.38,0 -0.57,0" fill="#4f5285" fill-rule="nonzero" id="path72"/>
   </g>
  </g>
  <path d="m1129.46,2280.73l0,26.97l107.65,42.61c18.28,7.23 30.28,24.89 30.28,44.55l0,0l-260.53,0l0,-114.13l122.6,0" fill="#4f5285" fill-rule="nonzero" id="path74"/>
  <path d="m1087.27,2344.91c0,11.96 -9.7,21.67 -21.67,21.67c-11.97,0 -21.67,-9.71 -21.67,-21.67c0,-11.97 9.7,-21.67 21.67,-21.67c11.97,0 21.67,9.69 21.67,21.67" fill="#373660" fill-rule="nonzero" id="path76"/>
  <path d="m1142.43,2312.84l-8.79,17.77c-1.93,3.91 -0.21,8.65 3.79,10.4l0,0c3.65,1.59 7.91,0.12 9.79,-3.39l10.15,-18.87l-14.94,-5.92" fill="#373660" fill-rule="nonzero" id="path78"/>
  <path d="m1168.7,2323.29l-8.79,17.77c-1.93,3.91 -0.21,8.64 3.79,10.39l0,0c3.65,1.6 7.91,0.12 9.79,-3.39l10.15,-18.87l-14.94,-5.91" fill="#373660" fill-rule="nonzero" id="path80"/>
  <path d="m1198.4,2335.03l-8.79,17.77c-1.93,3.92 -0.21,8.65 3.79,10.4l0,0c3.65,1.59 7.91,0.12 9.79,-3.39l10.15,-18.87l-14.94,-5.92" fill="#373660" fill-rule="nonzero" id="path82"/>
  <path d="m1006.85,2394.87l0,19.33l260.53,0l0,-19.33l-260.53,0" fill="#373660" fill-rule="nonzero" id="path84"/>
  <path d="m805.65,2280.73l0,26.97l-107.65,42.61c-18.28,7.23 -30.28,24.89 -30.28,44.55l0,0l260.53,0l0,-114.13l-122.6,0" fill="#4f5285" fill-rule="nonzero" id="path86"/>
  <path d="m847.84,2344.91c0,11.96 9.7,21.67 21.67,21.67c11.97,0 21.67,-9.71 21.67,-21.67c0,-11.97 -9.7,-21.67 -21.67,-21.67c-11.97,0 -21.67,9.69 -21.67,21.67" fill="#373660" fill-rule="nonzero" id="path88"/>
  <path d="m792.68,2312.84l8.79,17.77c1.93,3.91 0.21,8.65 -3.79,10.4l0,0c-3.65,1.59 -7.91,0.12 -9.79,-3.39l-10.15,-18.87l14.94,-5.92" fill="#373660" fill-rule="nonzero" id="path90"/>
  <path d="m766.4,2323.29l8.79,17.77c1.93,3.91 0.21,8.64 -3.79,10.39l0,0c-3.65,1.6 -7.91,0.12 -9.79,-3.39l-10.15,-18.87l14.94,-5.91" fill="#373660" fill-rule="nonzero" id="path92"/>
  <path d="m736.7,2335.03l8.79,17.77c1.93,3.92 0.21,8.65 -3.79,10.4l0,0c-3.65,1.59 -7.91,0.12 -9.79,-3.39l-10.15,-18.87l14.94,-5.92" fill="#373660" fill-rule="nonzero" id="path94"/>
  <path d="m928.25,2394.87l0,19.33l-260.53,0l0,-19.33l260.53,0" fill="#373660" fill-rule="nonzero" id="path96"/>
  <path d="m1022.02,937.85c-28.1,0 -50.87,35.43 -50.87,79.13l0,38.45c0,15.28 -1.38,30.52 -4.13,45.55l-9.91,54.23l64.91,-0.21l0,-58.88c28.1,0 50.87,-35.43 50.87,-79.13c0,-43.71 -22.78,-79.13 -50.87,-79.13" fill="#ffd1c1" fill-rule="nonzero" id="path98"/>
  <g id="g100" transform="matrix(0.133333 0 0 -0.133333 0 2666.67)">
   <g clip-path="url(#clipPath106)" id="g102">
    <path d="m8046.71,12294c0,0 -253.85,286.7 -516.24,286.7l10.98,170.1l557.53,-184.7c0,0 9.66,-235.6 -52.27,-272.1" fill="#ffb2a0" fill-rule="nonzero" id="path108"/>
   </g>
  </g>
  <path d="m1022.02,1096.12c0,0 -20.3,-3.07 -32.99,-30.03c0,0 4.12,37.67 32.99,40.05l0,-10.03" fill="#ffb2a0" fill-rule="nonzero" id="path110"/>
  <path d="m735.87,1258.6c37.98,-36.6 99.44,-95.85 99.44,-95.85c29.15,-27.12 67.48,-42.19 107.29,-42.19l104.3,0c39.86,0 78.25,15.11 107.41,42.29l114.67,106.88l-96.49,105.67l-44.96,-45.41l13.68,154.15l-304.9,0l17.87,-146.48l-37.38,37.75l-110.2,-88.59c0,0 12.29,-11.84 29.27,-28.21" fill="#ffc967" fill-rule="nonzero" id="path112"/>
  <g id="g114" transform="matrix(0.133333 0 0 -0.133333 0 2666.67)">
   <g clip-path="url(#clipPath120)" id="g116">
    <path d="m6406.34,9967.6l304.58,338.5c0,0 74.3,-789.6 977.19,-1045.3c902.89,-255.7 1060.82,-180.5 1060.82,-180.5l-30.08,-278.3l-2569.32,22l256.81,1143.6" fill="#ffa648" fill-rule="nonzero" id="path122"/>
    <path d="m8456.41,10025.1l-46.64,649.1l558.47,-798.5l-174.52,-293.7l-337.31,443.1" fill="#ffa648" fill-rule="nonzero" id="path124"/>
   </g>
  </g>
  <path d="m1066.52,920.35c-16.9,-13.29 -28.99,-10.61 -36.48,-5.44c-8.02,5.53 -17.25,8.95 -26.85,10.63c-19.69,3.47 -52.35,12.32 -54.27,36.03c-1.33,16.45 22.23,94.89 22.23,94.89l11.44,-36c-1.9,-2.73 -3.08,-6.52 -3.08,-10.73c0,-8.28 4.58,-15 10.23,-15c5.65,0 10.23,6.72 10.23,15c0,0.71 -0.04,1.39 -0.11,2.05c0.15,-0.07 0.29,-0.12 0.44,-0.19c5.93,-2.45 11.6,-35.69 11.6,-35.69l37.36,15.19c20.42,8.31 42.19,-8.75 38.92,-30.53c-2.18,-14.51 -8.12,-29.55 -21.66,-40.2" fill="#373660" fill-rule="nonzero" id="path126"/>
  <path d="m529.72,1165.32l-17.92,37.45c0,0 185.13,239.81 228.53,234.51c42.58,-5.19 82.3,-70.77 82.3,-70.77l-292.91,-201.19" fill="#ffd1c1" fill-rule="nonzero" id="path128"/>
  <g id="g130" transform="matrix(0.133333 0 0 -0.133333 0 2666.67)">
   <g clip-path="url(#clipPath136)" id="g132">
    <path d="m5414.41,10270l706.04,-833l152.38,367.9l-858.42,465.1" fill="#ffb2a0" fill-rule="nonzero" id="path138"/>
   </g>
  </g>
  <path d="m534.15,1169.25c0,0 -7.07,-52.29 -12.98,-47.21c-5.91,5.07 -0.79,10.71 -5.64,17.61c-8.06,11.48 -52.89,-52.67 -57.12,-49.44c-4.22,3.21 -20.82,58 -13.55,68.59c18.58,27.05 75.55,53.05 75.55,53.05l13.73,-42.6" fill="#ffd1c1" fill-rule="nonzero" id="path140"/>
  <path d="m340.25,1261.2l164.81,0c3.72,0 6.74,-3.01 6.74,-6.73l0,-229.51c0,-3.72 -3.02,-6.75 -6.74,-6.75l-164.81,0c-3.72,0 -6.74,3.03 -6.74,6.75l0,229.51c0,3.72 3.02,6.73 6.74,6.73" fill="#4f5285" fill-rule="nonzero" id="path142"/>
  <path d="m345.59,1245.21l154.12,0l0,-211l-154.12,0l0,211" fill="#ffffff" fill-rule="nonzero" id="path144"/>
  <path d="m398.01,1042.12l49.29,0l0,-23.91l-49.29,0l0,23.91" fill="#ffc967" fill-rule="nonzero" id="path146"/>
  <path d="m942.6,1120.56l104.3,0c0,0 -15.91,35.92 -57.87,34.65c-41.96,-1.27 -46.43,-34.65 -46.43,-34.65" fill="#ffd1c1" fill-rule="nonzero" id="path148"/>
  <path d="m949.39,1120.56c0,0 6.13,31.81 39.65,34.65c0,0 -36.28,2.83 -46.43,-34.65l6.78,0" fill="#ffb2a0" fill-rule="nonzero" id="path150"/>
  <path d="m513.38,1577.99c1.56,-52.2 -20.11,-117.69 -20.11,-117.69c-28.83,41.08 -32.19,76.37 -26.64,103.28c-11.54,-15.15 -26.01,-28.23 -42.82,-31.48c0,0 10.03,73.69 40.9,88.17l63.9,0c41.52,-16.03 64.21,-153.77 64.21,-153.77c-48.15,35.23 -69.77,79.99 -79.45,111.49" fill="#e8e8e8" fill-rule="nonzero" id="path152"/>
  <path d="m430.61,1620.27l134.84,0l-30.32,101.72l-78.19,0l-26.33,-101.72" fill="#d1d1d1" fill-rule="nonzero" id="path154"/>
  <g id="g156" transform="matrix(0.133333 0 0 -0.133333 0 2666.67)">
   <g clip-path="url(#clipPath162)" id="g158">
    <path d="m3249.65,7355.9c0,0 690.77,211 991.21,588.1l102.44,0l-263.98,-923.9l-768.39,0l-61.28,335.8" fill="#b5b5b5" fill-rule="nonzero" id="path164"/>
   </g>
  </g>
  <path d="m2836.92,2049.63l-25.16,325.91l-56.2,0l-29.43,-325.91l110.79,0" fill="#ffb2a0" fill-rule="nonzero" id="path166"/>
  <path d="m2965.99,2129.65l102,190.17l-56.39,-0.8l-192.69,-189.37l147.08,0" fill="#ffd1c1" fill-rule="nonzero" id="path168"/>
  <g id="g170" transform="matrix(0.133333 0 0 -0.133333 0 2666.67)">
   <g clip-path="url(#clipPath176)" id="g172">
    <path d="m22386.6,3763.4c0,0 -613.3,-10.3 -1008.6,-76.9c-395.3,-66.6 -359.7,208.3 -359.7,208.3l24.3,245.9l1183,72.3l161,-449.6" fill="#ffb2a0" fill-rule="nonzero" id="path178"/>
   </g>
  </g>
  <path d="m2812.17,2365.95c0,0 -35.75,-0.83 -60.68,-9.45l-65.41,23.85c-15.03,5.48 -25.04,19.79 -25.04,35.79l0,0l162.87,0l0,0c4.81,-16.12 1.45,-33.57 -9,-46.75l-2.73,-3.44" fill="#373660" fill-rule="nonzero" id="path180"/>
  <path d="m3064.47,2305.83c0,0 -31.92,11.07 -56.84,11.65l-50.04,42.71c-11.51,9.81 -15.65,25.77 -10.37,39.95l0,0l144.2,-53.73l0,0c-1.05,-15.85 -9.79,-30.2 -23.39,-38.41l-3.56,-2.16" fill="#373660" fill-rule="nonzero" id="path182"/>
  <path d="m2973.01,1576.25c0,0 34.65,70.96 24.93,145.17c-1.91,14.57 -5.16,27.69 -9.17,39.35c-23.96,69.64 -25.75,145.01 -6.91,216.21l46.33,175.08l-302.07,-6.29l0,-569.52l246.88,0" fill="#ffc967" fill-rule="nonzero" id="path184"/>
  <g id="g186" transform="matrix(0.133333 0 0 -0.133333 0 2666.67)">
   <g clip-path="url(#clipPath192)" id="g188">
    <path d="m22484.6,7917.9c0,0 -1692,-562.8 -1746.5,-1169c-54.4,-606.3 123.3,-3023.7 123.3,-3023.7l-752.1,0l0,4539.3l2375.3,0l0,-346.6" fill="#ffa648" fill-rule="nonzero" id="path194"/>
   </g>
  </g>
  <path d="m2746.84,1239.85l-158.75,96.81l-247.76,13.96l1.21,43.33c0,0 260.36,23.47 279.6,22.31c19.24,-1.15 104.99,-34.61 104.99,-34.61l20.71,-141.8" fill="#ffd1c1" fill-rule="nonzero" id="path196"/>
  <path d="m2817.85,993.99c0,0 82.27,-9.56 87.84,61.35c2.81,35.79 26.99,58.6 46.21,85.12c31.56,43.52 0.31,104.48 -53.45,104.48l-133.76,0c0,0 -15.93,-85.24 -9.56,-159.33c6.37,-74.08 54.96,-70.89 54.96,-70.89c0,0 -17.16,-14.35 7.76,-20.72" fill="#373660" fill-rule="nonzero" id="path198"/>
  <path d="m2864.72,1103.76c6.4,1.2 13,-5.36 14.75,-14.65c1.75,-9.29 -2.01,-17.81 -8.41,-19.01c-3.84,-0.72 -7.75,1.37 -10.64,5.16c-6.48,-26.77 -23.09,-45.84 -42.56,-45.84c-25.12,0 -45.48,31.67 -45.48,70.73c0,39.05 20.36,70.72 45.48,70.72l0,52.61l58.01,0.2l-8.87,-48.47c-2.45,-13.43 -3.69,-27.05 -3.69,-40.71l0,-31.16c0.47,0.17 0.93,0.32 1.41,0.41" fill="#ffd1c1" fill-rule="nonzero" id="path200"/>
  <g id="g202" transform="matrix(0.133333 0 0 -0.133333 0 2666.67)">
   <g clip-path="url(#clipPath208)" id="g204">
    <path d="m21268.3,12279.4c0,0 42.1,-329 -134.4,-460.5c-144.5,-107.6 -392.8,-50.1 -392.8,-50.1c0,0 133.9,510.9 243.5,543.7c109.5,32.9 283.7,-33.1 283.7,-33.1" fill="#ffb2a0" fill-rule="nonzero" id="path210"/>
   </g>
  </g>
  <path d="m2704.63,1613.99l34.27,-347.95c4.17,-37.68 36.01,-66.2 73.92,-66.2l82.56,0c36.43,0 67.49,26.39 73.39,62.32l51.53,314.09l-315.67,37.73" fill="#fe6d60" fill-rule="nonzero" id="path212"/>
  <g id="g214" transform="matrix(0.133333 0 0 -0.133333 0 2666.67)">
   <g clip-path="url(#clipPath220)" id="g216">
    <path d="m20399.3,10189.5c0,0 342.9,-1773 1933.8,-1730.5l365.2,0l84.7,-376.5l-2566.5,-310.4l182.8,2417.4" fill="#e63e36" fill-rule="nonzero" id="path222"/>
   </g>
  </g>
  <path d="m2817.85,1025c0,0 3.77,35.71 -11.16,50.11c-14.92,14.39 -43.17,13.85 -43.17,13.85c0,0 2.57,-63.43 54.33,-63.96" fill="#373660" fill-rule="nonzero" id="path224"/>
  <path d="m2817.85,1170.87c0,0 18.13,-2.73 29.48,-26.83c0,0 -3.69,33.65 -29.48,35.79l0,-8.96" fill="#ffb2a0" fill-rule="nonzero" id="path226"/>
  <path d="m1983.72,2416.13l713.24,0c16.11,0 29.17,-13.05 29.17,-29.16l0,-993.25c0,-16.11 -13.07,-29.17 -29.17,-29.17l-713.24,0c-16.11,0 -29.17,13.07 -29.17,29.17l0,993.25c0,16.11 13.07,29.16 29.17,29.16" fill="#4f5285" fill-rule="nonzero" id="path228"/>
  <path d="m2006.84,2346.92l667,0l0,-913.16l-667,0l0,913.16" fill="#ffffff" fill-rule="nonzero" id="path230"/>
  <path d="m2233.69,1468l213.29,0l0,-103.45l-213.29,0l0,103.45" fill="#ffc967" fill-rule="nonzero" id="path232"/>
  <path d="m2621.15,1602.56l-559.19,0l0,-37.83l559.19,0l0,37.83" fill="#e8e8e8" fill-rule="nonzero" id="path234"/>
  <path d="m2621.15,1694.15l-559.19,0l0,-37.83l559.19,0l0,37.83" fill="#e8e8e8" fill-rule="nonzero" id="path236"/>
  <path d="m2621.15,1785.73l-559.19,0l0,-37.83l559.19,0l0,37.83" fill="#e8e8e8" fill-rule="nonzero" id="path238"/>
  <path d="m2621.15,1877.31l-559.19,0l0,-37.81l559.19,0l0,37.81" fill="#e8e8e8" fill-rule="nonzero" id="path240"/>
  <path d="m2621.15,1968.89l-559.19,0l0,-37.81l559.19,0l0,37.81" fill="#e8e8e8" fill-rule="nonzero" id="path242"/>
  <path d="m2621.15,2060.48l-559.19,0l0,-37.81l559.19,0l0,37.81" fill="#e8e8e8" fill-rule="nonzero" id="path244"/>
  <path d="m2621.15,2152.07l-559.19,0l0,-37.81l559.19,0l0,37.81" fill="#e8e8e8" fill-rule="nonzero" id="path246"/>
  <path d="m2325.17,2243.65l-263.21,0l0,-37.83l263.21,0l0,37.83" fill="#e8e8e8" fill-rule="nonzero" id="path248"/>
  <path d="m2340.33,1350.63c0,0 -37.13,0.8 -47.76,6.43c-10.63,5.63 -21.27,50.64 -14.39,52.52c6.88,1.89 40.93,-8.71 44.48,-18.47c3.56,-9.77 5.33,-18.65 5.33,-18.65c0,0 4.44,26.2 7.11,25.76c2.65,-0.45 7.99,-33.67 7.99,-33.67l-2.76,-13.92" fill="#ffd1c1" fill-rule="nonzero" id="path250"/>
  <path d="m2278.19,1409.57c0,0 19.68,-1.36 33.92,-9.45c14.25,-8.09 15.89,-27.67 15.89,-27.67c0,0 3.03,26.59 7.11,25.76c4.07,-0.84 7.99,-33.67 7.99,-33.67l7.29,0c0,0 -7.04,41.16 -16.24,39.88c-9.19,-1.28 -8.76,-13.89 -8.76,-13.89c0,0 -14.01,25.69 -47.2,19.04" fill="#ffa648" fill-rule="nonzero" id="path252"/>
  <path d="m3030.8,1392.92l-49.72,-132.88c-13.4,-35.81 -47.41,-59.72 -85.64,-60.2l-0.07,0c0,0 29.45,179.43 39.09,214.15l-232,45.28c-7.67,-3.37 -40.33,-10.69 -50.35,-11.47c-15.03,-1.16 -28.37,17.24 -35.03,28.39c-2.32,3.88 0.11,8.88 4.6,9.49c16.88,2.31 53.39,6.93 75.87,7c0,0 304.81,23.16 336.39,-5.88c25.81,-23.75 -3.15,-93.88 -3.15,-93.88" fill="#ffd1c1" fill-rule="nonzero" id="path254"/>
  <g id="g256" transform="matrix(0.133333 0 0 -0.133333 0 2666.67)">
   <g clip-path="url(#clipPath262)" id="g258">
    <path d="m22008.5,9395.1l413.6,62.8c0,0 -300.1,66.1 -320.7,131.8c-20.5,65.6 -274.4,1375.4 -386.1,1411.5c-111.7,36.2 0,0 0,0c0,0 216.9,-1533.1 293.2,-1606.1" fill="#ffb2a0" fill-rule="nonzero" id="path264"/>
   </g>
  </g>
  <path d="m3207.77,1501.43l-24.29,763.76l171.67,0l-12.03,-630.13l144.75,620.37l167.05,-63.8l-195.44,-690.2l-251.71,0" fill="#373660" fill-rule="nonzero" id="path266"/>
  <path d="m3331.23,951.91c0,0 56.25,-3.15 67.85,68.45c3.77,23.35 6.32,42.84 8.04,58.52c2.81,25.76 -17.61,48.15 -43.53,47.65l-66.39,-1.27c-23.57,-0.45 -42.27,-20.08 -41.49,-43.64c1.01,-30.61 3.76,-68.63 11.08,-81.72c12.95,-23.19 64.44,-48 64.44,-48" fill="#373660" fill-rule="nonzero" id="path268"/>
  <path d="m3339.12,970.12c27.63,5.59 42.96,44.93 34.27,87.89l-7.64,37.8c-3.04,15.01 -4.71,30.27 -5,45.59l-1.04,55.27l-63.76,-13.11l11.71,-57.88c-27.61,-5.59 -42.96,-44.93 -34.27,-87.89c8.69,-42.96 38.12,-73.25 65.73,-67.67" fill="#ffd1c1" fill-rule="nonzero" id="path270"/>
  <g id="g272" transform="matrix(0.133333 0 0 -0.133333 0 2666.67)">
   <g clip-path="url(#clipPath278)" id="g274">
    <path d="m24469.8,12086.7c8.2,6.2 593.9,82.6 713.1,128.6c333.2,128.7 10,413.6 10,413.6c0,0 -101.5,40.5 -136.3,28.2c-34.9,-12.3 -147.8,-334.4 -215.5,-336.5c-67.7,-2 -326,50.9 -332.2,12.3c-6.3,-38.5 -39.1,-246.2 -39.1,-246.2" fill="#ffb2a0" fill-rule="nonzero" id="path280"/>
   </g>
  </g>
  <path d="m3307.65,1125.68c0,0 20.56,1.03 38.39,-22.95c0,0 -11.53,36.2 -40.37,32.8l1.99,-9.85" fill="#ffb2a0" fill-rule="nonzero" id="path282"/>
  <path d="m3364.19,972.96l0,0c-5.69,32.48 -33.91,56.16 -66.87,56.16l0,0c-27.65,0 -41.65,-33.15 -22.48,-53.08c13.72,-14.28 33.6,-25.49 61.92,-24.15c0,0 23.35,5.36 27.43,21.07" fill="#373660" fill-rule="nonzero" id="path284"/>
  <path d="m3375.76,1038.12c0,0 8.04,-16.36 12.97,-2.95c6.31,17.12 -18.57,26.52 -18.57,26.52l5.6,-23.57" fill="#ffd1c1" fill-rule="nonzero" id="path286"/>
  <path d="m3491.71,1531.29l-51.01,-310.97c-4.39,-26.69 -22.79,-48.07 -46.92,-57.07c-9.37,22.24 -30.04,33.35 -47.07,38.85c-20.32,6.57 -42.68,3.97 -60.41,-7.93c-16.52,-11.11 -21.93,-25.01 -23.65,-31.67c-26.41,8.96 -46.31,32.55 -49.53,61.65l-33.92,307.13l312.52,0" fill="#fe6d60" fill-rule="nonzero" id="path288"/>
  <path d="m3286.29,1194.17c17.73,11.91 40.09,14.51 60.41,7.93c17.03,-5.51 37.69,-16.61 47.07,-38.85c-8.05,-3.01 -16.73,-4.64 -25.75,-4.64l-81.73,0c-8.25,0 -16.21,1.37 -23.65,3.89c1.72,6.65 7.13,20.56 23.65,31.67" fill="#ffd1c1" fill-rule="nonzero" id="path290"/>
  <g id="g292" transform="matrix(0.133333 0 0 -0.133333 0 2666.67)">
   <g clip-path="url(#clipPath298)" id="g294">
    <path d="m24532.2,11310.4c0,0 72.8,-294.2 539.8,-345.1c0,0 -439.3,-199.6 -658.4,315.9l118.6,29.2" fill="#ffb2a0" fill-rule="nonzero" id="path300"/>
   </g>
  </g>
  <path d="m3311.67,1204.47c0,0 -25.73,27.72 -40.71,20.75c-14.99,-6.97 -20.55,-57.27 -20.55,-57.27c0,0 5.37,-3.48 12.23,-5.44c0,0 17.47,36.69 49.03,41.96" fill="#ffffff" fill-rule="nonzero" id="path302"/>
  <path d="m3334.12,1204.97c0,0 16.19,30.31 34.95,28.39c18.76,-1.91 40.16,-62.13 40.16,-62.13c0,0 -7.15,-5.43 -15.45,-7.97c0,0 -11.11,31.08 -59.65,41.72" fill="#ffffff" fill-rule="nonzero" id="path304"/>
  <path d="m3441.63,1305.93l68.04,-37.25c0,0 -17.96,-74.25 -100.44,-97.45l32.4,134.71" fill="#fe6d60" fill-rule="nonzero" id="path306"/>
  <path d="m3343.75,2362.23l0,40.23l-163.04,0l0,0c0,-12.31 7.51,-23.36 18.95,-27.88l67.36,-26.67c0,0 31.68,27.87 76.73,14.32" fill="#4f5285" fill-rule="nonzero" id="path308"/>
  <path d="m3258.91,2351.12l5.49,11.12c1.21,2.45 0.13,5.41 -2.37,6.51l0,0c-2.28,1 -4.95,0.08 -6.12,-2.12l-6.36,-11.81l9.36,-3.69" fill="#373660" fill-rule="nonzero" id="path310"/>
  <path d="m3242.45,2357.65l5.51,11.12c1.21,2.45 0.13,5.41 -2.37,6.51l0,0c-2.28,1 -4.95,0.08 -6.13,-2.12l-6.35,-11.8l9.35,-3.71" fill="#373660" fill-rule="nonzero" id="path312"/>
  <path d="m3223.87,2365l5.51,11.12c1.21,2.45 0.13,5.41 -2.37,6.51l0,0c-2.28,1 -4.95,0.08 -6.13,-2.12l-6.35,-11.8l9.35,-3.71" fill="#373660" fill-rule="nonzero" id="path314"/>
  <path d="m3343.75,2402.45l0,12.09l-163.04,0l0,-12.09l163.04,0" fill="#373660" fill-rule="nonzero" id="path316"/>
  <path d="m3343.75,2362.23l3.33,-97.04l-84.57,0l8.2,85.53c0,0 32.43,24.51 73.04,11.51" fill="#ffd1c1" fill-rule="nonzero" id="path318"/>
  <g id="g320" transform="matrix(0.133333 0 0 -0.133333 0 2666.67)">
   <g clip-path="url(#clipPath326)" id="g322">
    <path d="m25182.6,2846.7l-780.4,-122.7l-96.3,390.3l921.3,27.8l-44.6,-295.4" fill="#ffb2a0" fill-rule="nonzero" id="path328"/>
   </g>
  </g>
  <path d="m3651.75,2296.81l14.31,37.6l-152.4,57.95l0,0c-4.37,-11.51 -1.28,-24.51 7.8,-32.8l53.49,-48.87c0,0 39.51,14.79 76.8,-13.88" fill="#4f5285" fill-rule="nonzero" id="path330"/>
  <path d="m3568.49,2316.59l9.11,8.44c2,1.85 2.04,5.01 0.09,6.92l0,0c-1.79,1.75 -4.6,1.83 -6.49,0.2l-10.12,-8.79l7.41,-6.77" fill="#373660" fill-rule="nonzero" id="path332"/>
  <path d="m3555.45,2328.53l9.09,8.44c2,1.87 2.04,5.01 0.09,6.93l0,0c-1.77,1.73 -4.6,1.83 -6.48,0.19l-10.13,-8.77l7.43,-6.79" fill="#373660" fill-rule="nonzero" id="path334"/>
  <path d="m3540.69,2342.01l9.09,8.44c2,1.85 2.04,5.01 0.09,6.92l0,0c-1.79,1.75 -4.6,1.83 -6.48,0.2l-10.13,-8.77l7.43,-6.79" fill="#373660" fill-rule="nonzero" id="path336"/>
  <path d="m3666.05,2334.41l4.29,11.31l-152.4,57.95l-4.29,-11.31l152.4,-57.95" fill="#373660" fill-rule="nonzero" id="path338"/>
  <path d="m3651.75,2296.81l-31.36,-91.89l-79.07,30.07l38.08,77.03c0,0 39.01,11.37 72.35,-15.2" fill="#ffd1c1" fill-rule="nonzero" id="path340"/>
  <g id="g342" transform="matrix(0.133333 0 0 -0.133333 0 2666.67)">
   <g clip-path="url(#clipPath348)" id="g344">
    <path d="m27285.2,3354.1l-650.4,-471.2l-282.4,478l844.1,314.2l88.7,-321" fill="#ffb2a0" fill-rule="nonzero" id="path350"/>
   </g>
  </g>
  <path d="m3207.77,1294.68l-53.83,-20.19c0,0 30.93,-92.37 96.47,-106.55l-42.64,126.73" fill="#fe6d60" fill-rule="nonzero" id="path352"/>
  <path d="m3160,1276.76l-13.57,58.89l60.77,-16.79l4.47,-24.19l-51.67,-17.92" fill="#ffd1c1" fill-rule="nonzero" id="path354"/>
  <path d="m3207.2,1318.87l16.13,-70.45c0,0 10.79,52.27 16.37,50.67c5.59,-1.6 65.96,-22.32 65.96,-22.32l74.55,254.53l-44.76,0l-128.25,-212.43" fill="#e63e36" fill-rule="nonzero" id="path356"/>
  <path d="m3535.24,2161.85l-200.84,55.48l-239.61,-867.43l200.84,-55.47l239.61,867.41" fill="#ffc967" fill-rule="nonzero" id="path358"/>
  <g id="g360" transform="matrix(0.133333 0 0 -0.133333 0 2666.67)">
   <g clip-path="url(#clipPath366)" id="g362">
    <path d="m25191.8,8646.2c0,0 -152.1,-76.2 -175.9,-87.1c-23.9,-10.9 -390.7,-414 -503.3,-403.1c-112.6,10.8 -435,216.8 -435,216.8l1029.6,507.2l84.6,-233.8" fill="#ffa648" fill-rule="nonzero" id="path368"/>
   </g>
  </g>
  <path d="m3164.09,1382.81l-55.95,15.45l-5,-18.13l55.93,-15.45l5.01,18.13" fill="#feeaa1" fill-rule="nonzero" id="path370"/>
  <path d="m3176.91,1429.23l-55.93,15.45l-5.01,-18.15l55.93,-15.45l5.01,18.15" fill="#feeaa1" fill-rule="nonzero" id="path372"/>
  <path d="m3189.72,1475.63l-55.93,15.45l-5.01,-18.15l55.93,-15.44l5.01,18.13" fill="#feeaa1" fill-rule="nonzero" id="path374"/>
  <path d="m3202.55,1522.03l-55.95,15.45l-5,-18.13l55.93,-15.45l5.01,18.13" fill="#feeaa1" fill-rule="nonzero" id="path376"/>
  <path d="m3215.36,1568.43l-55.93,15.45l-5.01,-18.13l55.93,-15.45l5.01,18.13" fill="#feeaa1" fill-rule="nonzero" id="path378"/>
  <path d="m3228.17,1614.83l-55.93,15.45l-5.01,-18.13l55.93,-15.45l5.01,18.13" fill="#feeaa1" fill-rule="nonzero" id="path380"/>
  <path d="m3241,1661.23l-55.95,15.45l-5,-18.13l55.93,-15.45l5.01,18.13" fill="#feeaa1" fill-rule="nonzero" id="path382"/>
  <path d="m3253.81,1707.64l-55.93,15.44l-5.01,-18.13l55.93,-15.45l5.01,18.15" fill="#feeaa1" fill-rule="nonzero" id="path384"/>
  <path d="m3266.63,1754.04l-55.93,15.45l-5.01,-18.15l55.93,-15.45l5.01,18.15" fill="#feeaa1" fill-rule="nonzero" id="path386"/>
  <path d="m3279.45,1800.44l-55.95,15.45l-5,-18.13l55.93,-15.45l5.01,18.13" fill="#feeaa1" fill-rule="nonzero" id="path388"/>
  <path d="m3292.27,1846.84l-55.93,15.45l-5.01,-18.13l55.93,-15.45l5.01,18.13" fill="#feeaa1" fill-rule="nonzero" id="path390"/>
  <path d="m3305.08,1893.24l-55.93,15.45l-5.01,-18.13l55.93,-15.45l5.01,18.13" fill="#feeaa1" fill-rule="nonzero" id="path392"/>
  <path d="m3317.91,1939.64l-55.95,15.45l-5,-18.13l55.93,-15.45l5.01,18.13" fill="#feeaa1" fill-rule="nonzero" id="path394"/>
  <path d="m3330.72,1986.05l-55.93,15.44l-5.01,-18.13l55.93,-15.45l5.01,18.15" fill="#feeaa1" fill-rule="nonzero" id="path396"/>
  <path d="m3343.53,2032.45l-55.93,15.45l-5.01,-18.15l55.95,-15.45l5,18.15" fill="#feeaa1" fill-rule="nonzero" id="path398"/>
  <path d="m3356.36,2078.85l-55.95,15.45l-5,-18.15l55.93,-15.44l5.01,18.13" fill="#feeaa1" fill-rule="nonzero" id="path400"/>
  <path d="m3369.17,2125.25l-55.93,15.45l-5.01,-18.13l55.93,-15.45l5.01,18.13" fill="#feeaa1" fill-rule="nonzero" id="path402"/>
  <path d="m3381.99,2171.65l-55.93,15.45l-5.01,-18.13l55.95,-15.45l5,18.13" fill="#feeaa1" fill-rule="nonzero" id="path404"/>
  <path d="m3536.99,1345l-31.33,-74.12l-64.03,35.05l17.92,46.69l-163.01,143.88c-8.55,0.44 -68.87,3.72 -66.09,9.25c2.97,5.96 34.85,-2.97 33.51,8.93c-1.35,11.91 -57.92,30.36 -56.13,34.53c1.79,4.17 47.64,24.41 58.35,22.03c10.72,-2.37 63.83,-54.56 63.83,-54.56l-0.07,-0.04c23.33,-13.39 86.56,-49.93 140.27,-83.43c3.96,-2.47 46.92,-29.88 46.92,-29.88c19.41,-12.44 27.65,-36.64 19.88,-58.35" fill="#ffd1c1" fill-rule="nonzero" id="path406"/>
  <g id="g408" transform="matrix(0.133333 0 0 -0.133333 0 2666.67)">
   <g clip-path="url(#clipPath414)" id="g410">
    <path d="m25946.6,9855.3l294.7,195.5c0,0 -207.3,-20.3 -247.9,24.4c-40.6,44.7 -163.2,258.5 -163.2,258.5l-83.5,-68.1l199.9,-410.3" fill="#ffb2a0" fill-rule="nonzero" id="path416"/>
   </g>
  </g>
  <path d="m3154.41,1565.75c0,0 61.2,38.13 61.68,42.43c0.48,4.28 -21.97,32.32 -43.85,22.11c-21.88,-10.2 -17.83,-64.53 -17.83,-64.53" fill="#ffd1c1" fill-rule="nonzero" id="path418"/>
  <path d="m3151.27,648.21l-359.12,0c-9.47,0 -17.13,7.68 -17.13,17.15l0,169.67c0,9.47 7.67,17.15 17.13,17.15l71.15,0l-10.8,69.15c-1.03,6.64 6.73,10.97 11.84,6.61c27.08,-23.15 82.12,-70.41 86.13,-75.76l200.8,0c9.45,0 17.13,-7.68 17.13,-17.15l0,-169.67c0,-9.47 -7.68,-17.15 -17.13,-17.15" fill="#e8e8e8" fill-rule="nonzero" id="path420"/>
  <path d="m3137.67,707.01l-332.52,0c-0.67,0 -1.2,-0.53 -1.2,-1.2l0,-19.87c0,-0.67 0.53,-1.2 1.2,-1.2l332.52,0c0.67,0 1.2,0.53 1.2,1.2l0,19.87c0,0.67 -0.53,1.2 -1.2,1.2" fill="#ffffff" fill-rule="nonzero" id="path422"/>
  <path d="m3137.97,761.32l-332.53,0c-0.65,0 -1.2,-0.53 -1.2,-1.19l0,-19.88c0,-0.65 0.55,-1.19 1.2,-1.19l332.53,0c0.65,0 1.19,0.53 1.19,1.19l0,19.88c0,0.65 -0.53,1.19 -1.19,1.19" fill="#ffffff" fill-rule="nonzero" id="path424"/>
  <path d="m3138.27,815.64l-332.53,0c-0.65,0 -1.19,-0.53 -1.19,-1.2l0,-19.87c0,-0.65 0.53,-1.2 1.19,-1.2l332.53,0c0.65,0 1.19,0.55 1.19,1.2l0,19.87c0,0.67 -0.53,1.2 -1.19,1.2" fill="#ffffff" fill-rule="nonzero" id="path426"/>
  <path d="m2155.35,1017.92l0,-220.05l220.05,0l0,220.05l-220.05,0" fill="#e8e8e8" fill-rule="nonzero" id="path428"/>
  <path d="m2355.25,997.76l-179.76,0l0,-179.75l179.76,0l0,179.75" fill="#f7f7f7" fill-rule="nonzero" id="path430"/>
  <path d="m2400,896.19l0,-125.33l125.33,0l0,125.33l-125.33,0" fill="#e8e8e8" fill-rule="nonzero" id="path432"/>
  <path d="m2513.85,884.71l-102.37,0l0,-102.37l102.37,0l0,102.37" fill="#f7f7f7" fill-rule="nonzero" id="path434"/>
  <path d="m2400,1050.48l0,-125.33l125.33,0l0,125.33l-125.33,0" fill="#e8e8e8" fill-rule="nonzero" id="path436"/>
  <path d="m2513.85,1039l-102.37,0l0,-102.37l102.37,0l0,102.37" fill="#f7f7f7" fill-rule="nonzero" id="path438"/>
  <path d="m2292.16,930.97l-53.57,0l0,-53.56l53.57,0l0,53.56" fill="#d1d1d1" fill-rule="nonzero" id="path440"/>
  <path d="m2489.45,860.31l-53.56,0l0,-53.56l53.56,0l0,53.56" fill="#d1d1d1" fill-rule="nonzero" id="path442"/>
  <path d="m2489.45,1014.59l-53.56,0l0,-53.56l53.56,0l0,53.56" fill="#d1d1d1" fill-rule="nonzero" id="path444"/>
  <path d="m1559.67,667.35l-39.55,0c-5.51,-30 -17.24,-58.33 -34.56,-83.44l27.96,-27.97c3.52,-3.52 3.52,-9.23 0,-12.75l-43.33,-43.33c-3.52,-3.52 -9.23,-3.52 -12.75,0l-27.97,27.96c-25.11,-17.32 -53.44,-29.07 -83.44,-34.56l0,-39.55c0,-4.99 -4.04,-9.01 -9.01,-9.01l-61.3,0c-4.98,0 -9.01,4.03 -9.01,9.01l0,39.55c-30.01,5.49 -58.34,17.24 -83.45,34.56l-27.97,-27.96c-3.52,-3.52 -9.23,-3.52 -12.75,0l-43.34,43.33c-3.52,3.52 -3.52,9.23 0,12.75l27.97,27.97c-17.33,25.11 -29.06,53.44 -34.57,83.44l-39.55,0c-4.98,0 -9.01,4.04 -9.01,9.01l0,61.29c0,4.97 4.04,9.01 9.01,9.01l39.55,0c5.5,30.01 17.24,58.35 34.57,83.45l-27.97,27.96c-3.52,3.52 -3.52,9.23 0,12.75l43.34,43.35c3.52,3.52 9.23,3.52 12.75,0l27.97,-27.97c25.11,17.33 53.44,29.07 83.45,34.57l0,39.55c0,4.97 4.04,9.01 9.01,9.01l61.3,0c4.97,0 9.01,-4.04 9.01,-9.01l0,-39.55c30,-5.51 58.33,-17.24 83.44,-34.57l27.97,27.97c3.52,3.52 9.23,3.52 12.75,0l43.33,-43.35c3.52,-3.52 3.52,-9.23 0,-12.75l-27.96,-27.96c17.32,-25.11 29.05,-53.44 34.56,-83.45l39.55,0c4.99,0 9.01,-4.04 9.01,-9.01l0,-61.29c0,-4.97 -4.03,-9.01 -9.01,-9.01zm-253.3,184.83c-80.05,0 -145.17,-65.12 -145.17,-145.16c0,-80.05 65.12,-145.17 145.17,-145.17c80.05,0 145.17,65.12 145.17,145.17c0,80.04 -65.12,145.16 -145.17,145.16" fill="#e8e8e8" fill-rule="nonzero" id="path446"/>
  <path d="m1378.84,707.01c0,40.03 -32.45,72.47 -72.48,72.47c-40.03,0 -72.47,-32.44 -72.47,-72.47c0,-40.03 32.45,-72.48 72.47,-72.48c40.02,0 72.48,32.45 72.48,72.48" fill="#e8e8e8" fill-rule="nonzero" id="path448"/>
  <path d="m1629.16,744.15c-0.81,-0.85 -1.63,-1.72 -2.43,-2.59l2.07,-1.91c0.8,0.85 1.59,1.71 2.4,2.55l-2.04,1.95" fill="#d1d1d1" fill-rule="nonzero" id="path450"/>
  <path d="m1907.52,682.33l-0.76,-2.72c2.45,-0.69 4.91,-1.05 7.29,-1.07l0.03,2.81c-2.13,0.01 -4.33,0.35 -6.56,0.97zm18.97,2.85c-1.89,-1.28 -3.88,-2.24 -5.93,-2.88l0.84,-2.69c2.31,0.72 4.55,1.8 6.67,3.24l-1.57,2.33zm-30.95,3.29l-1.68,-2.25c2.01,-1.51 4.07,-2.8 6.12,-3.88l1.31,2.49c-1.92,1.01 -3.85,2.24 -5.75,3.64zm40.13,6.44c-1.31,-1.99 -2.69,-3.8 -4.15,-5.36l2.07,-1.91c1.56,1.67 3.05,3.6 4.44,5.73l-2.36,1.53zm-50.03,3.04l-2.16,-1.81c1.57,-1.87 3.21,-3.64 4.89,-5.25l1.95,2.03c-1.6,1.55 -3.17,3.24 -4.68,5.04zm56.16,9.25c-0.87,-2.25 -1.79,-4.37 -2.75,-6.33l2.52,-1.24c1,2.03 1.96,4.24 2.85,6.56l-2.63,1.01zm-63.93,2.11l-2.45,-1.36c1.16,-2.09 2.41,-4.13 3.76,-6.09l2.32,1.59c-1.29,1.89 -2.51,3.87 -3.63,5.87zm67.76,11.12c-0.41,-2.19 -0.96,-4.44 -1.61,-6.69l2.69,-0.79c0.69,2.33 1.25,4.68 1.68,6.96l-2.76,0.52zm-73.31,1.49l-2.68,-0.88c0.75,-2.24 1.61,-4.49 2.59,-6.69l2.57,1.13c-0.93,2.12 -1.77,4.29 -2.48,6.44zm77.13,12.29l-2.81,-0.13c0.03,-0.83 0.05,-1.68 0.05,-2.52c0,-1.41 -0.05,-2.87 -0.16,-4.32l2.8,-0.21c0.12,1.52 0.17,3.05 0.17,4.53c0,0.89 -0.01,1.77 -0.05,2.65zm-80,1.11l-2.81,-0.25c0.23,-2.33 0.6,-4.72 1.11,-7.11l2.76,0.59c-0.49,2.28 -0.85,4.56 -1.05,6.77zm77.45,13.01l-2.68,-0.87c0.69,-2.16 1.25,-4.37 1.65,-6.61l2.77,0.51c-0.43,2.35 -1.01,4.69 -1.75,6.97zm-80.44,0.93c-0.04,-2.2 -0.07,-4.4 -0.07,-6.6l0,-0.45l2.81,0l0,0.45c0,2.17 0.03,4.36 0.07,6.53l-2.81,0.07zm-227.21,4.76c-1.75,-1.59 -3.47,-3.23 -5.13,-4.87l1.96,-2.01c1.65,1.61 3.36,3.23 5.07,4.8l-1.89,2.08zm301.53,7.27l-2.37,-1.51c1.23,-1.95 2.35,-3.97 3.31,-5.99l2.53,1.2c-1,2.13 -2.17,4.24 -3.47,6.29zm-290.8,1.93c-1.84,-1.48 -3.67,-3 -5.44,-4.52l1.83,-2.13c1.75,1.49 3.56,2.99 5.37,4.45l-1.76,2.2zm217.21,0.16c-0.2,-2.27 -0.35,-4.64 -0.48,-7.05l2.81,-0.15c0.12,2.39 0.28,4.72 0.47,6.96l-2.8,0.24zm-205.92,8.32c-1.92,-1.35 -3.84,-2.75 -5.71,-4.15l1.69,-2.25c1.84,1.39 3.73,2.76 5.64,4.11l-1.63,2.29zm270.61,0.77l-2.03,-1.96c1.63,-1.67 3.16,-3.41 4.56,-5.15l2.2,1.75c-1.45,1.83 -3.04,3.63 -4.73,5.36zm-62.93,4.96c-0.39,-2.28 -0.73,-4.63 -1.03,-7.01l2.79,-0.35c0.29,2.33 0.64,4.65 1.01,6.89l-2.77,0.47zm-195.88,2.05c-2,-1.24 -4.01,-2.52 -5.95,-3.8l1.55,-2.36c1.92,1.28 3.89,2.53 5.88,3.76l-1.48,2.4zm248.08,2.37l-1.69,-2.25c1.88,-1.41 3.69,-2.88 5.39,-4.35l1.85,2.12c-1.75,1.52 -3.61,3.03 -5.55,4.48zm-235.84,4.69c-2.08,-1.12 -4.16,-2.28 -6.17,-3.44l1.41,-2.44c1.99,1.15 4.04,2.29 6.09,3.4l-1.33,2.48zm223.96,3.11l-1.41,-2.44c2.04,-1.19 4.04,-2.4 5.92,-3.64l1.55,2.36c-1.93,1.25 -3.97,2.51 -6.05,3.72zm-37.23,1.64c-0.39,-1.37 -0.76,-2.75 -1.09,-4.15c-0.23,-0.91 -0.44,-1.83 -0.64,-2.75l2.75,-0.61c0.2,0.89 0.41,1.8 0.63,2.69c0.33,1.36 0.69,2.71 1.07,4.04l-2.71,0.77zm-174.11,1.6c-2.13,-0.99 -4.27,-2.03 -6.36,-3.08l1.27,-2.52c2.07,1.04 4.19,2.07 6.28,3.05l-1.19,2.55zm198.71,3.24l-1.17,-2.55c2.15,-0.99 4.25,-2.01 6.28,-3.05l1.28,2.51c-2.05,1.05 -4.2,2.09 -6.39,3.09zm-185.76,2.39c-2.17,-0.87 -4.36,-1.79 -6.52,-2.72l1.13,-2.59c2.12,0.93 4.29,1.84 6.44,2.71l-1.05,2.6zm172.67,3.03l-0.97,-2.64c2.2,-0.83 4.39,-1.68 6.51,-2.55l1.07,2.6c-2.15,0.89 -4.36,1.76 -6.6,2.59zm-159.41,1.89c-2.21,-0.76 -4.45,-1.55 -6.65,-2.37l0.97,-2.64c2.19,0.81 4.4,1.6 6.59,2.35l-0.91,2.67zm145.97,2.59l-0.8,-2.71c2.07,-0.61 4.12,-1.27 6.12,-1.92c-0.43,-1.11 -0.84,-2.21 -1.23,-3.32l2.65,-0.95c0.76,2.17 1.61,4.35 2.51,6.48l-2.59,1.09c-0.11,-0.23 -0.2,-0.45 -0.29,-0.69c-2.08,0.69 -4.21,1.36 -6.37,2.01zm-132.48,1.6c-2.25,-0.64 -4.53,-1.31 -6.77,-2l0.84,-2.69c2.21,0.68 4.47,1.35 6.69,1.97l-0.76,2.72zm118.83,2.05l-0.65,-2.73c2.28,-0.55 4.56,-1.12 6.77,-1.72l0.73,2.72c-2.24,0.6 -4.55,1.19 -6.85,1.73zm-105.11,1.39c-2.28,-0.51 -4.59,-1.05 -6.88,-1.63l0.68,-2.73c2.27,0.57 4.56,1.11 6.8,1.61l-0.6,2.75zm91.27,1.53l-0.51,-2.77c2.28,-0.41 4.57,-0.87 6.87,-1.35l0.59,2.75c-2.32,0.49 -4.64,0.95 -6.95,1.37zm-77.4,1.16c-2.31,-0.37 -4.64,-0.8 -6.96,-1.25l0.55,-2.76c2.28,0.44 4.6,0.87 6.88,1.24l-0.47,2.77zm63.44,1.03l-0.37,-2.79c2.29,-0.29 4.6,-0.63 6.93,-1l0.44,2.79c-2.36,0.37 -4.69,0.71 -7,1zm-49.43,0.91c-2.35,-0.25 -4.71,-0.55 -7.01,-0.87l0.37,-2.79c2.29,0.32 4.63,0.6 6.95,0.85l-0.31,2.8zm35.35,0.55l-0.21,-2.8c2.31,-0.17 4.65,-0.39 6.97,-0.63l0.29,2.8c-2.35,0.24 -4.72,0.45 -7.05,0.63zm-21.23,0.53c-1.95,-0.05 -3.84,-0.16 -5.63,-0.29l-1.45,-0.12l0.23,-2.8l1.43,0.11c1.76,0.13 3.61,0.24 5.52,0.29l-0.09,2.81zm7.08,0.08l-0.03,-2.81c2.25,-0.01 4.61,-0.08 6.99,-0.19l0.12,2.81c-2.41,0.11 -4.79,0.17 -7.08,0.19zm82.64,0.6c-1.17,-2.07 -2.29,-4.17 -3.33,-6.28l2.52,-1.25c1.01,2.05 2.11,4.12 3.25,6.13l-2.44,1.4zm7.71,11.92c-1.39,-1.91 -2.75,-3.88 -4.01,-5.85l2.36,-1.53c1.25,1.93 2.57,3.87 3.93,5.72l-2.28,1.67zm8.96,11c-1.59,-1.75 -3.15,-3.56 -4.63,-5.39l2.19,-1.77c1.45,1.79 2.97,3.56 4.52,5.27l-2.08,1.89zm10.05,10c-1.75,-1.57 -3.48,-3.21 -5.15,-4.87l1.97,-2c1.64,1.63 3.35,3.24 5.05,4.77l-1.88,2.09zm11.03,8.93c-1.91,-1.39 -3.8,-2.84 -5.63,-4.32l1.77,-2.19c1.79,1.44 3.64,2.87 5.52,4.24l-1.67,2.27zm11.85,7.79c-2.04,-1.19 -4.07,-2.45 -6.03,-3.75l1.55,-2.35c1.92,1.27 3.91,2.49 5.91,3.67l-1.43,2.43zm12.57,6.59c-2.15,-0.99 -4.28,-2.04 -6.36,-3.13l1.29,-2.49c2.04,1.07 4.15,2.09 6.25,3.07l-1.19,2.56zm13.19,5.28c-2.23,-0.76 -4.47,-1.6 -6.67,-2.48l1.05,-2.61c2.15,0.87 4.33,1.68 6.52,2.43l-0.91,2.67zm13.65,3.89c-2.29,-0.52 -4.61,-1.12 -6.88,-1.76l0.77,-2.71c2.23,0.63 4.49,1.21 6.73,1.73l-0.63,2.73zm13.99,2.41c-2.32,-0.27 -4.69,-0.61 -7.03,-1.01l0.48,-2.77c2.28,0.4 4.6,0.73 6.87,1l-0.32,2.79zm21.28,0.63l-0.16,-2.81c2.31,-0.13 4.64,-0.35 6.91,-0.61l0.35,2.79c-2.33,0.29 -4.72,0.51 -7.09,0.64zm-7.09,0.21c-2.36,0 -4.75,-0.08 -7.11,-0.21l0.16,-2.81c2.31,0.13 4.64,0.2 6.95,0.2l0,2.83" fill="#d1d1d1" fill-rule="nonzero" id="path452"/>
  <path d="m2021.57,884.2l-0.52,-2.76c1.15,-0.21 2.28,-0.44 3.41,-0.69l0.6,2.76c-1.16,0.25 -2.33,0.48 -3.49,0.69" fill="#d1d1d1" fill-rule="nonzero" id="path454"/>
  <path d="m970.71,766.51c-2.33,-0.05 -4.66,-0.05 -6.99,0l-0.05,-2.83c2.36,-0.04 4.73,-0.04 7.09,0.01l-0.05,2.81zm-20.94,0.76l-0.26,-2.8c2.34,-0.21 4.72,-0.39 7.07,-0.52l0.15,2.81c-2.32,0.12 -4.66,0.29 -6.97,0.51zm34.89,0.03c-2.31,-0.21 -4.65,-0.4 -6.97,-0.52l0.16,-2.81c2.35,0.13 4.73,0.31 7.07,0.53l-0.27,2.8zm-48.75,1.75l-0.45,-2.79c2.33,-0.37 4.69,-0.72 7.01,-1.01l0.36,2.79c-2.29,0.29 -4.62,0.63 -6.92,1.01zm-13.7,2.73l-0.65,-2.75c2.3,-0.53 4.63,-1.04 6.93,-1.51l0.55,2.76c-2.26,0.45 -4.56,0.96 -6.83,1.49zm-13.49,3.68l-0.83,-2.69c2.25,-0.69 4.54,-1.36 6.8,-1.99l0.74,2.72c-2.23,0.61 -4.49,1.27 -6.71,1.96zm-13.21,4.57l-1.01,-2.63c2.2,-0.84 4.44,-1.67 6.65,-2.43l0.92,2.65c-2.19,0.76 -4.4,1.57 -6.56,2.4zm-12.87,5.47l-1.19,-2.55c2.13,-1 4.31,-1.96 6.47,-2.88l1.1,2.59c-2.13,0.91 -4.28,1.87 -6.39,2.84zm-12.47,6.32l-1.36,-2.47c2.06,-1.13 4.17,-2.25 6.27,-3.31l1.27,2.51c-2.07,1.05 -4.15,2.15 -6.18,3.27zm-12.02,7.13l-1.52,-2.37c1.97,-1.25 4,-2.51 6.03,-3.72l1.44,2.43c-2,1.19 -4,2.43 -5.95,3.67zm-11.51,7.93l-1.68,-2.25c1.89,-1.4 3.83,-2.79 5.77,-4.12l1.6,2.31c-1.91,1.32 -3.83,2.69 -5.69,4.07zm-10.94,8.71l-1.83,-2.15c1.79,-1.52 3.63,-3.04 5.47,-4.51l1.75,2.21c-1.82,1.44 -3.63,2.93 -5.39,4.44zm-10.31,9.44l-1.97,-2c1.67,-1.65 3.4,-3.29 5.14,-4.88l1.9,2.07c-1.71,1.57 -3.42,3.2 -5.07,4.81zm-9.61,10.15l-2.11,-1.85c1.55,-1.76 3.16,-3.53 4.78,-5.24l2.05,1.93c-1.59,1.69 -3.18,3.43 -4.71,5.16zm-8.84,10.83l-2.25,-1.71c1.42,-1.87 2.89,-3.75 4.38,-5.57l2.18,1.79c-1.47,1.8 -2.92,3.64 -4.32,5.49zm-8.01,11.44l-2.37,-1.52l0.39,-0.61c1.15,-1.76 2.34,-3.53 3.56,-5.28l2.31,1.61c-1.2,1.72 -2.38,3.47 -3.51,5.2l-0.39,0.6zm-7.19,12l-2.46,-1.37c1.16,-2.08 2.36,-4.15 3.54,-6.13l2.42,1.45c-1.17,1.96 -2.35,4 -3.5,6.05zm-6.49,12.41l-2.53,-1.25c1.04,-2.11 2.11,-4.21 3.2,-6.31l2.5,1.31c-1.08,2.07 -2.14,4.15 -3.17,6.25zm-5.94,12.69l-2.57,-1.15c0.96,-2.15 1.93,-4.29 2.93,-6.43l2.55,1.2c-0.99,2.11 -1.96,4.24 -2.91,6.37zm-5.53,12.91l-2.6,-1.08c0.9,-2.17 1.81,-4.35 2.74,-6.49l2.59,1.11c-0.92,2.15 -1.83,4.31 -2.73,6.47zm-5.29,13.03l-2.61,-1.04c0.87,-2.19 1.75,-4.36 2.63,-6.55l2.61,1.07c-0.88,2.16 -1.75,4.35 -2.62,6.52zm-5.2,13.08l-2.62,-1.04l2.6,-6.55l2.62,1.04l-2.6,6.55zm-5.28,13.08l-2.6,-1.08c0.89,-2.16 1.77,-4.33 2.65,-6.51l2.61,1.05c-0.88,2.17 -1.76,4.35 -2.66,6.53zm-5.51,12.99l-2.58,-1.13c0.94,-2.13 1.87,-4.29 2.78,-6.44l2.59,1.09c-0.92,2.16 -1.85,4.33 -2.79,6.48zm-5.9,12.84l-2.54,-1.23c1.02,-2.11 2.01,-4.21 2.99,-6.35l2.56,1.17c-0.98,2.15 -1.99,4.28 -3.01,6.4zm-6.45,12.59l-2.47,-1.35c1.12,-2.05 2.21,-4.12 3.27,-6.19l2.51,1.28c-1.07,2.09 -2.17,4.19 -3.3,6.25zm-7.24,12.2l-2.36,-1.53c1.26,-1.93 2.5,-3.93 3.68,-5.93l2.42,1.44c-1.2,2.03 -2.46,4.05 -3.74,6.03zm-8.19,11.59l-2.23,-1.72c1.41,-1.83 2.81,-3.72 4.14,-5.61l2.3,1.63c-1.36,1.92 -2.78,3.84 -4.21,5.71zm-9.11,10.89l-2.08,-1.91c1.55,-1.69 3.1,-3.47 4.59,-5.25l2.16,1.8c-1.52,1.83 -3.09,3.63 -4.67,5.36zm-10.02,10.07l-1.9,-2.08c1.7,-1.56 3.39,-3.19 5.03,-4.83l2,1.99c-1.67,1.68 -3.4,3.33 -5.13,4.92zm-10.94,9.09l-1.69,-2.27c1.83,-1.37 3.68,-2.81 5.47,-4.32l1.8,2.17c-1.83,1.52 -3.71,3 -5.59,4.41zm-11.85,7.88l-1.42,-2.43c1.97,-1.16 3.95,-2.4 5.9,-3.69l1.56,2.35c-1.99,1.32 -4.02,2.6 -6.04,3.77zm-12.75,6.39l-1.09,-2.6c2.1,-0.88 4.22,-1.85 6.31,-2.91l1.26,2.52c-2.14,1.08 -4.33,2.08 -6.48,2.99zm-13.54,4.53l-0.68,-2.73c2.21,-0.56 4.44,-1.21 6.65,-1.95l0.89,2.67c-2.27,0.76 -4.58,1.44 -6.86,2.01zm-14.11,2.28l-0.21,-2.8c2.27,-0.17 4.58,-0.44 6.86,-0.81l0.45,2.77c-2.36,0.39 -4.75,0.67 -7.11,0.84zm-7.16,0.21c-2.38,-0.04 -4.78,-0.19 -7.15,-0.44l0.3,-2.8c2.28,0.24 4.6,0.39 6.89,0.43l-0.05,2.81" fill="#d1d1d1" fill-rule="nonzero" id="path456"/>
  <path d="m1668.19,1007.21c0,-46.48 -22.88,-84.16 -51.11,-84.16c-28.24,0 -51.12,37.68 -51.12,84.16c0,29.15 9,54.83 22.68,69.93l-6.65,64.41l70.17,0l-6.29,-64.81c13.47,-15.16 22.32,-40.64 22.32,-69.53" fill="#ffd1c1" fill-rule="nonzero" id="path458"/>
  <g id="g460" transform="matrix(0.133333 0 0 -0.133333 0 2666.67)">
   <g clip-path="url(#clipPath466)" id="g462">
    <path d="m11786.1,12476.9c0,0 109.6,123.6 119.8,247.8c0,0 166.5,-109.6 515.6,-58.5l-5.2,170.5l-637.5,41.3c0,0 -42.4,-349.3 7.3,-401.1" fill="#ffb2a0" fill-rule="nonzero" id="path468"/>
   </g>
  </g>
  <path d="m1588.64,1077.15c0,0 25.19,29.01 57.23,-0.4l2.05,21.23c0,0 -28.77,20.68 -61.43,0l2.15,-20.83" fill="#ffb2a0" fill-rule="nonzero" id="path470"/>
  <path d="m1452.55,2249.91l1.71,93.25l101,0l0,-93.25l-102.71,0" fill="#ffd1c1" fill-rule="nonzero" id="path472"/>
  <g id="g474" transform="matrix(0.133333 0 0 -0.133333 0 2666.67)">
   <g clip-path="url(#clipPath480)" id="g476">
    <path d="m10795.8,2776l930,43.2l10.4,347.7l-908.3,10.4l-32.1,-401.3" fill="#ffa18a" fill-rule="nonzero" id="path482"/>
   </g>
  </g>
  <path d="m1729.68,2227.11l-21.88,90.67l-98.6,-21.89l20.21,-91.04l100.27,22.27" fill="#ffa18a" fill-rule="nonzero" id="path484"/>
  <path d="m1718.28,2274.39l115.04,70.6c16.07,11.33 23.59,31.32 18.96,50.43l0,0l-253.23,-61.24l14.69,-60.76c0,0 29.07,25.12 104.53,0.97" fill="#4f5285" fill-rule="nonzero" id="path486"/>
  <path d="m1599.05,2334.17l-4.55,18.8l253.24,61.23l4.53,-18.79l-253.23,-61.24" fill="#373660" fill-rule="nonzero" id="path488"/>
  <path d="m1748.72,1484.13l-264.95,0l-92.29,796.6l185.37,0l44.8,-700.83l66.87,334.39l-76.6,326.27l166.56,40.17l61.65,-317.35c4.53,-23.31 4.21,-47.31 -0.92,-70.49l-90.49,-408.76" fill="#373660" fill-rule="nonzero" id="path490"/>
  <path d="m1555.25,2328.15l0,66.72l-260.52,0l0,0c0,-19.65 12,-37.32 30.28,-44.55l127.54,-44.03c0,0 35.8,42.09 102.71,21.85" fill="#4f5285" fill-rule="nonzero" id="path492"/>
  <path d="m1555.25,2394.87l0,19.33l-260.52,0l0,-19.33l260.52,0" fill="#373660" fill-rule="nonzero" id="path494"/>
  <path d="m1463.32,1484.13l51.67,-323.31c3.71,-23.2 23.72,-40.27 47.21,-40.27l110.45,0c23.68,0 43.79,17.32 47.29,40.75l48.27,322.83l-304.89,0" fill="#ffffff" fill-rule="nonzero" id="path496"/>
  <path d="m1681.2,1120.56l-128.25,0c0.41,4.95 3.68,11.25 7.76,17.36c8.35,12.52 26.17,14.07 36.71,3.32l19.67,-20.07l19.67,20.07c10.52,10.75 28.35,9.2 36.69,-3.32c4.08,-6.11 7.35,-12.41 7.76,-17.36" fill="#e8e8e8" fill-rule="nonzero" id="path498"/>
  <path d="m1624.83,1154.07l11.92,-12.83l-19.67,-20.07l-19.67,20.07l9.37,11.55l-15.43,239.01l24.4,32.41l24.4,-32.41l-15.33,-237.73" fill="#373660" fill-rule="nonzero" id="path500"/>
  <path d="m1552.95,1120.56l-19.81,386.24l-98.12,-18.69l49.61,-308.71c5.4,-33.64 34.25,-58.49 68.32,-58.84l0,0" fill="#ffc967" fill-rule="nonzero" id="path502"/>
  <path d="m1676.77,1121.17l19.8,386.24l98.12,-18.68l-49.61,-308.72c-5.4,-33.64 -34.25,-58.48 -68.31,-58.84l0,0" fill="#ffc967" fill-rule="nonzero" id="path504"/>
  <g id="g506" transform="matrix(0.133333 0 0 -0.133333 0 2666.67)">
   <g clip-path="url(#clipPath512)" id="g508">
    <path d="m13006.2,11286.4l-142,-49.8l85.4,-334.3l-107,-129.2l-125.8,573l275.6,31.9l13.8,-91.6" fill="#ffa648" fill-rule="nonzero" id="path514"/>
   </g>
  </g>
  <path d="m1505.59,1139.71l-176.55,153.37l92.54,87.07l96.41,-90.07l-12.4,-150.37" fill="#ffc967" fill-rule="nonzero" id="path516"/>
  <path d="m1283.01,1882.39l-11.1,-9.19c-27.78,-23.01 -31.65,-64.17 -8.64,-91.96l0,0l111.69,92.51l0,0c-23,27.77 -64.17,31.65 -91.95,8.64" fill="#4f5285" fill-rule="nonzero" id="path518"/>
  <path d="m1390.63,1854.83l-111.69,-92.51l13.99,-16.89l111.7,92.51l-14,16.89" fill="#4f5285" fill-rule="nonzero" id="path520"/>
  <path d="m1828.92,1089.48l178.11,-102.6c5.43,-3.13 11.83,2.17 9.76,8.09l-67.61,194.11l-27.79,33.56l-120.27,-99.59l27.8,-33.57" fill="#e8e8e8" fill-rule="nonzero" id="path522"/>
  <g id="g524" transform="matrix(0.133333 0 0 -0.133333 0 2666.67)">
   <g clip-path="url(#clipPath530)" id="g526">
    <path d="m15056.7,12198.9l-333.6,276.3l249.9,301.8l333.6,-276.3l-249.9,-301.8" fill="#373660" fill-rule="nonzero" id="path532"/>
   </g>
  </g>
  <path d="m1897,1188.41l-7.95,-49.13l-52.79,3.04l-7.35,-52.84l-522.56,631l120.26,99.6l522.55,-631l-52.17,-0.67" fill="#fe6d60" fill-rule="nonzero" id="path534"/>
  <path d="m1407.05,1839.95l-116.56,-96.53c-5.75,-4.75 -6.55,-13.27 -1.79,-19.01l0.49,-0.59c4.76,-5.75 13.27,-6.55 19.02,-1.79l116.56,96.52c5.75,4.76 6.55,13.27 1.79,19.01l-0.49,0.6c-4.76,5.73 -13.27,6.53 -19.01,1.79" fill="#373660" fill-rule="nonzero" id="path536"/>
  <path d="m1377.39,1875.76l-116.55,-96.53c-5.75,-4.75 -6.55,-13.27 -1.79,-19.01l0.49,-0.59c4.76,-5.75 13.27,-6.55 19.02,-1.79l116.55,96.52c5.75,4.76 6.55,13.27 1.8,19.01l-0.49,0.6c-4.76,5.73 -13.28,6.53 -19.03,1.79" fill="#373660" fill-rule="nonzero" id="path538"/>
  <path d="m1897,1188.41l-501.65,605.76l-59.32,-49.12l499.6,-603.27l53.43,-2.51l7.95,49.13" fill="#e63e36" fill-rule="nonzero" id="path540"/>
  <path d="m1329.03,1293.08l305.19,72.17l-26.85,90.13l-263.53,-39.49c-24.15,-3.85 -43.79,-21.52 -50.18,-45.12l0,0c-0.2,-0.73 -0.38,-1.47 -0.55,-2.2c-4.27,-18.4 1.31,-37.72 14.08,-51.65l21.85,-23.84" fill="#ffc967" fill-rule="nonzero" id="path542"/>
  <path d="m1790.16,1461.84l-74.93,-293.39l81.96,-28.75l93.21,249.65c8.33,22.99 2.41,48.73 -15.13,65.76l0,0c-0.55,0.53 -1.09,1.05 -1.65,1.55c-14.04,12.67 -33.63,17.15 -52,12.73l-31.45,-7.56" fill="#ffc967" fill-rule="nonzero" id="path544"/>
  <g id="g546" transform="matrix(0.133333 0 0 -0.133333 0 2666.67)">
   <g clip-path="url(#clipPath552)" id="g548">
    <path d="m13308,9499c0,0 198.3,-472.2 877.9,-368.4c0,0 -184.7,-438.1 -775.7,-163.5l-102.2,531.9" fill="#ffa648" fill-rule="nonzero" id="path554"/>
   </g>
  </g>
  <path d="m1454.05,1322.64l47.72,-79.2l-17.84,70.24l58.36,14.44c0,0 0.79,15.57 0,15.39c-0.77,-0.17 -88.24,-20.87 -88.24,-20.87" fill="#ffa648" fill-rule="nonzero" id="path556"/>
  <path d="m1444.2,1430.93l90.51,13.56l-19.12,23.08l-75.31,-12.19l3.92,-24.45" fill="#ffa648" fill-rule="nonzero" id="path558"/>
  <path d="m1563.56,954.92c0,0 121.33,36.64 134.61,-16.97c18.24,-73.59 -48.09,-35.28 -48.09,-35.28c0,0 -93.99,-25.25 -86.52,52.25" fill="#373660" fill-rule="nonzero" id="path560"/>
  <path d="m1570.12,935.91c0,0 -24.32,1.67 -30.19,22.03c-5.85,20.35 26.03,64.07 26.03,64.07c0,0 14.84,-46.08 12.51,-62.59c-2.35,-16.51 -8.35,-23.51 -8.35,-23.51" fill="#373660" fill-rule="nonzero" id="path562"/>
  <path d="m1661.96,940.84c0,0 24.32,1.67 30.19,22.01c5.87,20.36 -26.03,64.08 -26.03,64.08c0,0 -14.83,-46.08 -12.49,-62.59c2.33,-16.51 8.33,-23.51 8.33,-23.51" fill="#373660" fill-rule="nonzero" id="path564"/>
  <path d="m1576.15,1015.96c0,9.03 -5.44,16.35 -12.15,16.35c-6.72,0 -12.16,-7.32 -12.16,-16.35c0,-9.04 5.44,-16.36 12.16,-16.36c6.71,0 12.15,7.32 12.15,16.36" fill="#ffd1c1" fill-rule="nonzero" id="path566"/>
  <path d="m1682.93,1011.56c0,9.03 -5.44,16.35 -12.15,16.35c-6.72,0 -12.16,-7.32 -12.16,-16.35c0,-9.03 5.44,-16.35 12.16,-16.35c6.71,0 12.15,7.32 12.15,16.35" fill="#ffd1c1" fill-rule="nonzero" id="path568"/>
  <path d="m1744.51,2290.77l-11.65,16.04c-2.57,3.53 -1.67,8.49 1.99,10.88l0,0c3.32,2.19 7.77,1.45 10.23,-1.68l13.17,-16.89l-13.73,-8.35" fill="#373660" fill-rule="nonzero" id="path570"/>
  <path d="m1768.65,2305.51l-11.67,16.04c-2.56,3.52 -1.65,8.48 1.99,10.88l0,0c3.33,2.19 7.77,1.45 10.23,-1.69l13.19,-16.88l-13.73,-8.35" fill="#373660" fill-rule="nonzero" id="path572"/>
  <path d="m1795.95,2322.08l-11.65,16.04c-2.57,3.53 -1.67,8.48 1.99,10.88l0,0c3.32,2.19 7.77,1.45 10.21,-1.68l13.19,-16.89l-13.73,-8.35" fill="#373660" fill-rule="nonzero" id="path574"/>
  <path d="m1427.15,2315.27l7.72,18.27c1.71,4.01 -0.29,8.64 -4.39,10.15l0,0c-3.73,1.37 -7.91,-0.35 -9.59,-3.96l-9.01,-19.43l15.27,-5.03" fill="#373660" fill-rule="nonzero" id="path576"/>
  <path d="m1400.31,2324.57l7.72,18.27c1.71,4.01 -0.31,8.64 -4.4,10.15l0,0c-3.73,1.37 -7.89,-0.35 -9.57,-3.96l-9.01,-19.43l15.27,-5.03" fill="#373660" fill-rule="nonzero" id="path578"/>
  <path d="m1370.49,2334.91l7.72,18.27c1.71,4.01 -0.31,8.64 -4.4,10.15l0,0c-3.73,1.37 -7.89,-0.35 -9.57,-3.96l-9.01,-19.43l15.27,-5.03" fill="#373660" fill-rule="nonzero" id="path580"/>
  <path d="m1627.77,1386.92c0,0 53.01,-8.69 60.61,-3.77c7.6,4.92 -31.73,11.17 -24.59,16.09c7.16,4.92 59.47,13.75 61.25,24.97c1.79,11.24 -25.48,38.07 -42.03,36.27c-16.55,-1.79 -68.95,-27.6 -68.95,-27.6l13.69,-45.96" fill="#ffd1c1" fill-rule="nonzero" id="path582"/>
  <path d="m1734.16,1161.81c0,0 -8.35,-21.03 10.37,-35.36c18.71,-14.33 47.56,7.51 47.56,7.51l-8.81,10.63l-49.12,17.23" fill="#ffd1c1" fill-rule="nonzero" id="path584"/>
  <path d="m1582.25,2280.73l-194.99,0c-2.96,0 -5.35,-2.4 -5.35,-5.36l0,-26.37c0,-2.95 2.39,-5.35 5.35,-5.35l194.99,0c2.96,0 5.36,2.4 5.36,5.35l0,26.37c0,2.96 -2.4,5.36 -5.36,5.36" fill="#4f5285" fill-rule="nonzero" id="path586"/>
  <path d="m1788.32,2284.25l-189.69,-45.13c-2.88,-0.69 -4.65,-3.57 -3.97,-6.44l6.11,-25.67c0.69,-2.88 3.57,-4.65 6.44,-3.96l189.71,45.13c2.87,0.69 4.64,3.57 3.96,6.44l-6.11,25.67c-0.68,2.87 -3.56,4.65 -6.44,3.96" fill="#4f5285" fill-rule="nonzero" id="path588"/>
  <path d="m3915.03,2419.65l-3757.88,0l0,-7.04l3757.88,0l0,7.04" fill="#373660" fill-rule="nonzero" id="path590"/>
 </g>
</svg>